<?xml version="1.0" encoding="UTF-8" standalone="no"?>
<!-- Created with Inkscape (http://www.inkscape.org/) -->

<svg
   width="181.13087"
   height="209.15192"
   viewBox="0 0 47.924209 55.338111"
   version="1.1"
   id="svg1"
   inkscape:version="1.3.2 (091e20e, 2023-11-25)"
   sodipodi:docname="logo.svg"
   inkscape:export-filename="logo.png"
   inkscape:export-xdpi="400"
   inkscape:export-ydpi="400"
   xmlns:inkscape="http://www.inkscape.org/namespaces/inkscape"
   xmlns:sodipodi="http://sodipodi.sourceforge.net/DTD/sodipodi-0.dtd"
   xmlns="http://www.w3.org/2000/svg"
   xmlns:svg="http://www.w3.org/2000/svg">
  <sodipodi:namedview
     id="namedview1"
     pagecolor="#ffffff"
     bordercolor="#37c84a"
     borderopacity="1"
     inkscape:showpageshadow="false"
     inkscape:pageopacity="0.0"
     inkscape:pagecheckerboard="0"
     inkscape:deskcolor="#d1d1d1"
     inkscape:document-units="mm"
     showborder="true"
     borderlayer="true"
     inkscape:zoom="0.67704828"
     inkscape:cx="81.234975"
     inkscape:cy="276.19891"
     inkscape:window-width="1264"
     inkscape:window-height="919"
     inkscape:window-x="449"
     inkscape:window-y="64"
     inkscape:window-maximized="0"
     inkscape:current-layer="layer1" />
  <defs
     id="defs1">
    <clipPath
       id="a-8-1-4-0-0-5">
      <path
         d="M 1260.5,0 0,727.8 V 2183.2 L 1260.5,2911 2521,2183.2 V 727.8 Z"
         id="path1-10-8-7-0-0-9" />
    </clipPath>
    <clipPath
       clipPathUnits="userSpaceOnUse"
       id="clipPath35-7-5">
      <path
         style="fill:#2d2d2d;fill-opacity:1"
         clip-path="url(#a-9-0-62-8-2)"
         transform="matrix(0.01616256,0,0,0.01616256,139.53209,99.610221)"
         d="M -277.1,-101.9 H 2870.6 V 2998.2 H -277.1 Z"
         id="path35-1-3" />
    </clipPath>
    <clipPath
       id="a-9-0-62-8-2">
      <path
         d="M 1260.5,0 0,727.8 V 2183.2 L 1260.5,2911 2521,2183.2 V 727.8 Z"
         id="path1-1-0-5-4-7" />
    </clipPath>
    <clipPath
       id="a-0-9-5-1-9-3">
      <path
         d="M 1260.5,0 0,727.8 V 2183.2 L 1260.5,2911 2521,2183.2 V 727.8 Z"
         id="path1-2-59-3-3-73-9" />
    </clipPath>
  </defs>
  <g
     inkscape:label="Layer 1"
     inkscape:groupmode="layer"
     id="layer1"
     transform="translate(-83.608313,-75.4062)">
    <g
       id="g37"
       transform="translate(15.300984,-115.27697)">
      <g
         id="g40">
        <path
           style="fill:#2d2d2d"
           clip-path="url(#a-8-1-4-0-0-5)"
           transform="matrix(0.01901,0,0,0.01901,68.307329,190.68317)"
           d="M -277.1,-101.9 H 2870.6 V 2998.2 H -277.1 Z"
           id="path16-3-1-8-6-5-7" />
        <g
           id="g69-7-2-7-0-7"
           transform="matrix(1.0355282,0,0,1,-73.316707,95.217399)"
           clip-path="url(#clipPath35-7-5)">
          <path
             style="fill:#d9d9d9;fill-opacity:1;stroke:none;stroke-width:2.13696;stroke-linecap:square;stroke-miterlimit:10;stroke-dasharray:none;stroke-opacity:1;paint-order:fill markers stroke"
             d="m 176.63572,131.22661 a 2.0034,2.0034 0 0 1 1.88346,2.11612 v 24.97038 h -3.99772 v -24.97198 a 2.1145219,2.1145219 0 0 1 2.11452,-2.11452 z"
             id="path59-1-9-4-1-2-9" />
          <path
             style="fill:#2171b5;fill-opacity:1;stroke:none;stroke-width:2.13696;stroke-linecap:square;stroke-miterlimit:10;stroke-dasharray:none;stroke-opacity:1;paint-order:fill markers stroke"
             d="m 171.09672,124.47561 a 2.0034,2.0034 0 0 1 1.88346,2.11612 v 24.97038 h -3.99772 v -24.97198 a 2.1145219,2.1145219 0 0 1 2.11452,-2.11452 z"
             id="path60-8-4-7-55-3-5" />
          <path
             style="fill:#a3c586;fill-opacity:1;stroke:none;stroke-width:2.13696;stroke-linecap:square;stroke-miterlimit:10;stroke-dasharray:none;stroke-opacity:1;paint-order:fill markers stroke"
             d="m 165.55772,133.73461 a 2.0034,2.0034 0 0 1 1.88346,2.11612 v 24.97038 h -3.99772 v -24.97198 a 2.1145219,2.1145219 0 0 1 2.11452,-2.11452 z"
             id="path61-7-1-4-8-7-3" />
          <path
             style="fill:#fcbf49;fill-opacity:1;stroke:none;stroke-width:2.13696;stroke-linecap:square;stroke-miterlimit:10;stroke-dasharray:none;stroke-opacity:1;paint-order:fill markers stroke"
             d="m 160.01872,129.29761 a 2.0034,2.0034 0 0 1 1.88346,2.11612 v 24.97038 h -3.99772 v -24.97198 a 2.1145219,2.1145219 0 0 1 2.11452,-2.11452 z"
             id="path62-8-6-1-5-1-3" />
          <path
             style="fill:#d9d9d9;fill-opacity:1;stroke:none;stroke-width:2.13696;stroke-linecap:square;stroke-miterlimit:10;stroke-dasharray:none;stroke-opacity:1;paint-order:fill markers stroke"
             d="m 154.47972,131.22661 a 2.0034,2.0034 0 0 1 1.88346,2.11612 v 24.97038 h -3.99772 v -24.97198 a 2.1145219,2.1145219 0 0 1 2.11452,-2.11452 z"
             id="path63-7-1-8-67-8-3" />
          <path
             style="fill:#969696;fill-opacity:1;stroke:none;stroke-width:2.13696;stroke-linecap:square;stroke-miterlimit:10;stroke-dasharray:none;stroke-opacity:1;paint-order:fill markers stroke"
             d="m 148.94072,124.08961 a 2.0034,2.0034 0 0 1 1.88346,2.11612 v 24.97038 h -3.99772 v -24.97198 a 2.1145219,2.1145219 0 0 1 2.11452,-2.11452 z"
             id="path64-7-2-5-9-9-8" />
          <path
             style="fill:#2171b5;fill-opacity:1;stroke:none;stroke-width:2.13696;stroke-linecap:square;stroke-miterlimit:10;stroke-dasharray:none;stroke-opacity:1;paint-order:fill markers stroke"
             d="m 143.40172,128.91161 a 2.0034,2.0034 0 0 1 1.88346,2.11612 v 24.97038 h -3.99772 v -24.97198 a 2.1145219,2.1145219 0 0 1 2.11452,-2.11452 z"
             id="path65-4-0-8-41-3-5" />
        </g>
        <text
           xml:space="preserve"
           style="font-style:normal;font-variant:normal;font-weight:700;font-stretch:normal;font-size:5.32268px;font-family:Courier;-inkscape-font-specification:'Courier Bold';fill:#e3e3e3;fill-opacity:1;stroke:#d0d0d0;stroke-width:3.23314;stroke-linecap:square;stroke-miterlimit:10;stroke-opacity:1;paint-order:fill markers stroke"
           x="71.055054"
           y="216.34573"
           id="text66-5-9-0-3-7-8"><tspan
             style="font-size:5.32268px;fill:#e3e3e3;fill-opacity:1;stroke:none;stroke-width:3.23314"
             x="71.055054"
             y="216.34573"
             id="tspan66-3-3-1-7-4-9">latent<tspan
   style="font-size:6.65337px;fill:#e3e3e3;fill-opacity:1;stroke-width:3.23314"
   id="tspan65-0-4-0-5-8-6">2</tspan>likert</tspan></text>
        <path
           fill="none"
           stroke="#0071bc"
           stroke-width=".198"
           stroke-linecap="round"
           stroke-linejoin="round"
           stroke-miterlimit="10"
           d="m 114.79643,208.15626 c -1.01599,0.037 -2.032,0.071 -3.04599,0.094 -0.97,0.021 -1.94301,0.032 -2.90001,-0.009 -1.014,-0.044 -2.00499,-0.144 -2.942,-0.36 a 9.186,9.186 0 0 1 -2.482,-0.98 c -0.71799,-0.406 -1.33,-0.914 -1.863,-1.434 a 18.157,18.157 0 0 1 -1.50799,-1.671 58.34,58.34 0 0 1 -1.369001,-1.804 75.848,75.848 0 0 0 -1.331,-1.773 c -0.447,-0.572 -0.935,-1.139 -1.522,-1.644 a 5.556,5.556 0 0 0 -1.032,-0.697 c -0.377,-0.2 -0.845,-0.302 -1.345,-0.308 -0.507,-0.006 -1.007,0.183 -1.437,0.382 -0.439,0.205 -0.815,0.483 -1.166,0.753 -0.722,0.556 -1.321,1.182 -1.908,1.8 -0.568,0.599 -1.1,1.212 -1.638,1.822 -0.566,0.642 -1.133,1.285 -1.726,1.918 a 27.221,27.221 0 0 1 -1.83,1.802 c -0.672,0.595 -1.4,1.159 -2.221,1.664 -0.808,0.497 -1.713,0.895 -2.683,1.203 -0.933,0.297 -1.942,0.479 -2.925,0.597 -1.011,0.122 -2.02,0.196 -3.032,0.255 a 180.01,180.01 0 0 1 -3.148,0.151"
           style="stroke:#2171b5;stroke-width:0.685406;stroke-dasharray:none;stroke-opacity:1"
           id="path66-4-0-3-0-0-0" />
        <path
           fill="none"
           stroke="#0071bc"
           stroke-width=".198"
           stroke-linecap="round"
           stroke-linejoin="round"
           stroke-miterlimit="10"
           d="m 69.597938,209.48826 c 1.023,-0.002 2.046,-0.007 3.069,-0.022 0.977,-0.014 1.959,-0.037 2.93,-0.104 1.03,-0.07 2.04,-0.188 3.008,-0.402 a 11.901,11.901 0 0 0 2.606,-0.915 11.149,11.149 0 0 0 2.027,-1.278 c 0.606,-0.473 1.169,-0.963 1.691,-1.468 a 64.432,64.432 0 0 0 1.564,-1.576 c 0.5,-0.518 1.002,-1.036 1.523,-1.548 0.509,-0.5 1.059,-0.997 1.703,-1.445 a 6.998,6.998 0 0 1 1.113,-0.626 c 0.4,-0.182 0.883,-0.284 1.389,-0.306 0.513,-0.021 1,0.122 1.413,0.277 0.424,0.159 0.776,0.382 1.103,0.6 0.674,0.448 1.217,0.959 1.747,1.464 0.514,0.489 0.99,0.992 1.472,1.491 0.508,0.527 1.016,1.053 1.551,1.57 0.519992,0.503 1.063992,0.998 1.667992,1.469 0.62,0.483 1.299,0.936 2.078,1.338 0.766,0.395 1.64,0.703 2.59,0.932 0.912,0.221 1.913,0.342 2.895,0.41 a 57.9,57.9 0 0 0 3.037,0.116 c 1.004,0.016 2.008,0.02 3.013,0.022 h 0.153"
           style="stroke:#969696;stroke-width:0.633354;stroke-dasharray:none;stroke-opacity:1"
           id="path67-8-7-0-2-4-4" />
        <path
           fill="none"
           stroke="#0071bc"
           stroke-width=".198"
           stroke-linecap="round"
           stroke-linejoin="round"
           stroke-miterlimit="10"
           d="m 69.693439,209.49426 a 325.2,325.2 0 0 0 3.053,0.063 c 0.973,0.014 1.947,0.022 2.907,-0.006 1.016,-0.03 2.008,-0.097 2.947,-0.242 0.936,-0.145 1.748,-0.38 2.488,-0.662 a 9.515,9.515 0 0 0 1.867,-0.966 15.775,15.775 0 0 0 1.511,-1.126 c 0.475,-0.4 0.926,-0.808 1.372,-1.216 0.438,-0.4 0.876,-0.8 1.334,-1.195 a 9.946,9.946 0 0 1 1.526,-1.108 6.228,6.228 0 0 1 1.034,-0.47 c 0.377,-0.134 0.846,-0.203 1.348,-0.207 0.508,-0.004 1.01,0.123 1.44,0.258 0.44,0.137 0.817,0.325 1.168,0.507 0.724,0.375 1.325,0.796 1.913,1.213 0.57,0.403 1.102,0.817 1.64,1.228 0.569,0.433 1.136,0.866 1.73,1.293 0.577,0.414 1.178001,0.823 1.835001,1.214 0.673,0.401 1.403,0.781 2.226,1.122 0.81,0.335 1.717,0.603 2.688,0.81 0.935,0.201 1.947,0.323 2.93199,0.403 1.013,0.082 2.025,0.132 3.03801,0.172 1.002,0.04 2.00299,0.069 3.00299,0.097 l 0.152,0.004"
           style="stroke:#d9d9d9;stroke-width:0.563313;stroke-dasharray:none;stroke-opacity:1"
           id="path68-5-5-0-1-0-2" />
        <path
           style="fill:#adadad;fill-opacity:1"
           d="M 1260.2,2918.7 -7.2,2187 V 723.4 L 1260.3,-8.3 2527.7,723.5 V 2187 l -21.4,12.3 z M 78.3,2137.6 1260.3,2820 2442.2,2137.6 V 772.8 L 1260.2,90.4 78.3,772.8 Z"
           clip-path="url(#a-0-9-5-1-9-3)"
           transform="matrix(0.01901,0,0,0.01901,68.307329,190.68317)"
           id="path38-4-7-7-8-5-3" />
      </g>
    </g>
  </g>
</svg>
